<svg xmlns="http://www.w3.org/2000/svg" width="19.697" height="23.655" viewBox="0 0 19.697 23.655">
  <g id="apple" transform="translate(288.411 355.978)">
    <path id="Trazado_44" data-name="Trazado 44" d="M18.854,190.292a5.989,5.989,0,0,0-3.481-3.59,4.5,4.5,0,0,0-3.777.4c-.23.134-.451.295-.672.455v-.089a5.386,5.386,0,0,0-5.38-5.38,1.076,1.076,0,1,0,0,2.152,3.232,3.232,0,0,1,3.228,3.228v.089A8.009,8.009,0,0,0,8.1,187.1a4.506,4.506,0,0,0-3.775-.4,5.99,5.99,0,0,0-3.481,3.589A14.246,14.246,0,0,0,2.413,203c1.584,2.2,3.746,3.162,5.777,2.581a8.872,8.872,0,0,1,1.676-.553,13.626,13.626,0,0,1,1.639.553c2.27.647,4.387-.65,5.778-2.582a14.242,14.242,0,0,0,1.57-12.7Zm0,0" transform="translate(-288.411 -538.068)" fill="#232323"/>
  </g>
</svg>
