<svg xmlns="http://www.w3.org/2000/svg" width="25.902" height="25.902" viewBox="0 0 25.902 25.902">
  <g id="skype-logo" transform="translate(-0.005)">
    <path id="Skype" d="M24.826,14.826A12.016,12.016,0,0,0,12.955.933a12.14,12.14,0,0,0-1.875.148,7.263,7.263,0,0,0-9.994,9.995,12.237,12.237,0,0,0-.147,1.875A12.027,12.027,0,0,0,14.831,24.821a7.263,7.263,0,0,0,9.994-10Zm-6.164,3.59a4.987,4.987,0,0,1-2.231,1.715,8.886,8.886,0,0,1-3.468.618A8.292,8.292,0,0,1,8.993,19.9a5.144,5.144,0,0,1-1.807-1.625,3.528,3.528,0,0,1-.7-1.988,1.32,1.32,0,0,1,.429-.984,1.526,1.526,0,0,1,1.09-.409,1.362,1.362,0,0,1,.912.32,2.43,2.43,0,0,1,.625.93,5.857,5.857,0,0,0,.66,1.183,2.616,2.616,0,0,0,.989.775,3.9,3.9,0,0,0,1.684.306,4.023,4.023,0,0,0,2.33-.617,1.8,1.8,0,0,0,.884-1.524,1.528,1.528,0,0,0-.472-1.17,3.141,3.141,0,0,0-1.246-.7q-.772-.245-2.072-.519a16.222,16.222,0,0,1-2.923-.888A4.742,4.742,0,0,1,7.494,11.6,3.465,3.465,0,0,1,6.8,9.4a3.6,3.6,0,0,1,.737-2.228,4.6,4.6,0,0,1,2.129-1.5,9.262,9.262,0,0,1,3.256-.52A8.659,8.659,0,0,1,15.5,5.5a5.685,5.685,0,0,1,1.818.918,3.934,3.934,0,0,1,1.061,1.207,2.645,2.645,0,0,1,.337,1.241,1.442,1.442,0,0,1-.429,1.014,1.418,1.418,0,0,1-1.07.45,1.291,1.291,0,0,1-.889-.275,3.531,3.531,0,0,1-.645-.868A3.855,3.855,0,0,0,14.645,7.88,3.207,3.207,0,0,0,12.7,7.417a3.591,3.591,0,0,0-2.012.505,1.43,1.43,0,0,0-.753,1.2,1.148,1.148,0,0,0,.252.742,2.132,2.132,0,0,0,.711.547,4.927,4.927,0,0,0,.925.364c.315.089.837.218,1.562.389q1.365.294,2.477.654a7.78,7.78,0,0,1,1.894.874A3.691,3.691,0,0,1,18.982,14a3.936,3.936,0,0,1,.443,1.94A4.216,4.216,0,0,1,18.661,18.416Z" transform="translate(0 0)" fill="#232323"/>
  </g>
</svg>
