<svg xmlns="http://www.w3.org/2000/svg" width="27.139" height="13.438" viewBox="0 0 27.139 13.438">
  <g id="dumbbell" transform="translate(0 -0.5)">
    <path id="Trazado_6" data-name="Trazado 6" d="M140.172,70.086h9.769V74.9h-9.769Zm0,0" transform="translate(-131.487 -65.274)" fill="#232323"/>
    <path id="Trazado_7" data-name="Trazado 7" d="M404.842,48.953h-.678v7.1h.678a1.42,1.42,0,0,0,1.419-1.419V50.372a1.42,1.42,0,0,0-1.419-1.419Zm0,0" transform="translate(-379.122 -45.451)" fill="#232323"/>
    <path id="Trazado_8" data-name="Trazado 8" d="M320.52.5h-2.691V13.938h2.691a1.42,1.42,0,0,0,1.419-1.419V1.919A1.42,1.42,0,0,0,320.52.5Zm0,0" transform="translate(-298.135 0)" fill="#232323"/>
    <path id="Trazado_9" data-name="Trazado 9" d="M53.836,1.919v10.6a1.42,1.42,0,0,0,1.419,1.419h2.691V.5H55.255a1.42,1.42,0,0,0-1.419,1.419Zm0,0" transform="translate(-50.5)" fill="#232323"/>
    <path id="Trazado_10" data-name="Trazado 10" d="M0,50.372v4.262a1.42,1.42,0,0,0,1.419,1.419H2.1v-7.1H1.419A1.42,1.42,0,0,0,0,50.372Zm0,0" transform="translate(0 -45.451)" fill="#232323"/>
  </g>
</svg>
