<svg id="whatsapp" xmlns="http://www.w3.org/2000/svg" width="24.926" height="24.926" viewBox="0 0 24.926 24.926">
  <g id="Grupo_101" data-name="Grupo 101">
    <path id="Trazado_45" data-name="Trazado 45" d="M12.466,0H12.46A12.455,12.455,0,0,0,2.373,19.768L.819,24.4l4.79-1.531A12.461,12.461,0,1,0,12.466,0Zm7.252,17.6a3.517,3.517,0,0,1-2.446,1.759c-.651.139-1.5.249-4.365-.938C9.244,16.9,6.886,13.181,6.7,12.94A7.118,7.118,0,0,1,5.222,9.18,3.979,3.979,0,0,1,6.5,6.147,1.811,1.811,0,0,1,7.771,5.7c.154,0,.293.008.418.014.366.016.55.037.791.615.3.724,1.033,2.513,1.12,2.7a.742.742,0,0,1,.053.675,2.154,2.154,0,0,1-.4.572c-.184.212-.358.374-.542.6-.168.2-.358.41-.146.776a11.062,11.062,0,0,0,2.022,2.513,9.163,9.163,0,0,0,2.923,1.8.788.788,0,0,0,.879-.139,15.08,15.08,0,0,0,.974-1.29.7.7,0,0,1,.894-.271c.336.117,2.117,1,2.483,1.179s.608.271.7.425A3.1,3.1,0,0,1,19.718,17.6Z" fill="#232323"/>
  </g>
</svg>
