<?xml version="1.0" encoding="utf-8"?>
<!-- Generator: Adobe Illustrator 23.0.1, SVG Export Plug-In . SVG Version: 6.00 Build 0)  -->
<svg version="1.1" id="Capa_1" xmlns="http://www.w3.org/2000/svg" xmlns:xlink="http://www.w3.org/1999/xlink" x="0px" y="0px"
	 viewBox="0 0 22.4 22.4" style="enable-background:new 0 0 22.4 22.4;" xml:space="preserve">
<style type="text/css">
	.st0{fill:#FFFFFF;}
</style>
<path class="st0" d="M19.1,3.4C14.7-1,7.7-1,3.3,3.4c-2.1,2.1-3.3,4.9-3.3,7.9s1.2,5.8,3.3,7.9s4.9,3.3,7.9,3.3c0,0,0,0,0,0
	c3,0,5.8-1.2,7.9-3.3c2.1-2.1,3.3-4.9,3.3-7.9C22.3,8.3,21.1,5.4,19.1,3.4z M20.4,11.2c0,2-0.7,4-1.9,5.7l-0.8,0.9
	c-3.6,3.5-9.4,3.5-13,0c0,0-0.4-0.4-0.8-0.9c-0.1-0.2-0.3-0.4-0.4-0.6c-2.7-4-1.8-9.4,2-12.4C7.1,2.7,9.1,2,11.2,2c0,0,0,0,0,0
	l0.2,0c2.4,0.1,4.6,1,6.3,2.7C19.5,6.4,20.4,8.8,20.4,11.2z"/>
<path class="st0" d="M19.1,18.1c-0.9-1.9-2.5-3.4-4.5-4.3c0.9-0.7,1.5-1.7,1.8-2.9c0.3-1.4,0.1-2.8-0.6-4.1
	c-0.7-1.2-1.9-2.1-3.3-2.4C11,4.1,9.6,4.3,8.4,5.1C7.2,5.8,6.3,7,6,8.4c-0.3,1.4-0.1,2.8,0.6,4.1c0.3,0.5,0.7,1,1.2,1.3
	c-0.1,0.1-0.3,0.1-0.4,0.2c-1.8,0.8-3.3,2.3-4.1,4.1L3,18.6l2.1,0l0.1-0.2c1.2-2.1,3.4-3.3,5.8-3.4h0.3c0.7,0,1.5,0.2,2.2,0.4
	c1.5,0.5,2.8,1.6,3.6,3l0.1,0.2l2.1,0L19.1,18.1z M14.7,9.8c-0.1,1.8-1.5,3.3-3.3,3.3l-0.3,0C9.2,13,7.7,11.4,7.7,9.5
	c0.1-1.9,1.7-3.4,3.6-3.3c0.9,0,1.8,0.4,2.4,1.1C14.4,8,14.7,8.8,14.7,9.8z"/>
</svg>
