<svg id="Grupo_122" data-name="Grupo 122" xmlns="http://www.w3.org/2000/svg" width="26.993" height="26.993" viewBox="0 0 26.993 26.993">
  <g id="Grupo_14" data-name="Grupo 14">
    <g id="Grupo_13" data-name="Grupo 13">
      <path id="Trazado_12" data-name="Trazado 12" d="M18.558,0H8.435A8.436,8.436,0,0,0,0,8.435V18.558a8.436,8.436,0,0,0,8.435,8.435H18.558a8.436,8.436,0,0,0,8.435-8.435V8.435A8.436,8.436,0,0,0,18.558,0Zm5.9,18.558a5.911,5.911,0,0,1-5.9,5.9H8.435a5.911,5.911,0,0,1-5.9-5.9V8.435a5.911,5.911,0,0,1,5.9-5.9H18.558a5.911,5.911,0,0,1,5.9,5.9Z" fill="#a8a8a8"/>
    </g>
  </g>
  <g id="Grupo_16" data-name="Grupo 16" transform="translate(6.748 6.748)">
    <g id="Grupo_15" data-name="Grupo 15">
      <path id="Trazado_13" data-name="Trazado 13" d="M134.748,128a6.748,6.748,0,1,0,6.748,6.748A6.749,6.749,0,0,0,134.748,128Zm0,10.966a4.218,4.218,0,1,1,4.218-4.218A4.224,4.224,0,0,1,134.748,138.966Z" transform="translate(-128 -128)" fill="#a8a8a8"/>
    </g>
  </g>
  <g id="Grupo_18" data-name="Grupo 18" transform="translate(19.852 5.343)">
    <g id="Grupo_17" data-name="Grupo 17">
      <circle id="Elipse_5" data-name="Elipse 5" cx="0.899" cy="0.899" r="0.899" fill="#a8a8a8"/>
    </g>
  </g>
</svg>
