<?xml version="1.0" encoding="utf-8"?>
<!-- Generator: Adobe Illustrator 23.0.1, SVG Export Plug-In . SVG Version: 6.00 Build 0)  -->
<svg version="1.1" id="Capa_1" xmlns="http://www.w3.org/2000/svg" xmlns:xlink="http://www.w3.org/1999/xlink" x="0px" y="0px"
	 viewBox="0 0 22.4 22.4" style="enable-background:new 0 0 22.4 22.4;" xml:space="preserve">
<style type="text/css">
	.st0{fill:#FFFFFF;stroke:#FFFFFF;stroke-width:1.3;stroke-miterlimit:10;}
</style>
<path class="st0" d="M17.8,15.6L14.3,14c-0.3-0.2-0.5-0.5-0.5-0.8V12c0.1-0.1,0.2-0.2,0.3-0.3c0.5-0.6,0.8-1.3,1.1-2
	C15.6,9.5,16,9,16,8.5V7.1c0-0.3-0.1-0.6-0.4-0.9V4.4c0-0.2,0.1-1.3-0.8-2.2c-0.8-0.8-2-1.2-3.6-1.2S8.3,1.4,7.6,2.2
	c-0.9,0.9-0.8,2-0.8,2.2v1.8C6.6,6.5,6.4,6.8,6.4,7.1v1.4c0,0.4,0.2,0.8,0.5,1.1c0.3,1.2,1,2.2,1.3,2.5v1.1c0,0.3-0.2,0.6-0.5,0.8
	l-3.3,1.7c-1.1,0.5-1.7,1.6-1.7,2.7v1.1c0,1.6,5.5,2,8.4,2s8.4-0.4,8.4-2v-1C19.6,17.2,18.9,16.1,17.8,15.6z M18.9,19.4
	c0,0.5-2.7,1.4-7.7,1.4s-7.7-0.9-7.7-1.4v-1.1c0-0.9,0.5-1.7,1.3-2.1l3.3-1.7C8.7,14.2,9,13.7,9,13.1v-1.4l-0.1-0.1
	c0,0-0.9-1-1.3-2.4l0-0.1L7.5,9C7.3,8.9,7.2,8.7,7.2,8.5V7.1c0-0.2,0.1-0.4,0.2-0.5l0.1-0.1V4.4l0,0c0,0-0.1-1,0.6-1.7
	c0.6-0.6,1.6-1,3.1-1c1.4,0,2.5,0.3,3.1,1c0.7,0.8,0.6,1.7,0.6,1.7l0,2.2L15,6.6c0.2,0.1,0.2,0.3,0.2,0.5v1.4c0,0.3-0.2,0.6-0.5,0.6
	l-0.2,0.1l-0.1,0.2c-0.2,0.7-0.6,1.4-1,1.9c-0.1,0.1-0.2,0.3-0.3,0.4L13,11.8v1.4c0,0.6,0.4,1.1,0.9,1.4l3.5,1.6
	c0.9,0.4,1.4,1.2,1.4,2.1V19.4z"/>
</svg>
