<svg xmlns="http://www.w3.org/2000/svg" width="18" height="17.267" viewBox="0 0 18 17.267">
  <g id="like" transform="translate(0 -10.434)">
    <g id="Grupo_67" data-name="Grupo 67" transform="translate(0 15.947)">
      <g id="Grupo_66" data-name="Grupo 66">
        <path id="Trazado_36" data-name="Trazado 36" d="M2.938,167.256H.588a.589.589,0,0,0-.588.588v10.578a.588.588,0,0,0,.588.588H2.938a.588.588,0,0,0,.588-.588V167.844A.589.589,0,0,0,2.938,167.256Z" transform="translate(0 -167.256)" fill="#272727"/>
      </g>
    </g>
    <g id="Grupo_69" data-name="Grupo 69" transform="translate(4.701 10.433)">
      <g id="Grupo_68" data-name="Grupo 68">
        <path id="Trazado_37" data-name="Trazado 37" d="M145.558,15.947c-.095-.016-4.526,0-4.526,0l.619-1.689c.427-1.166.151-2.947-1.034-3.58a2.031,2.031,0,0,0-1.36-.2.98.98,0,0,0-.6.449,2.441,2.441,0,0,0-.188.833,3.6,3.6,0,0,1-1,1.906c-.912.89-3.747,3.457-3.747,3.457v9.4h9.794a1.78,1.78,0,0,0,1.536-2.628,1.779,1.779,0,0,0,.588-2.351,1.779,1.779,0,0,0,.588-2.351A1.793,1.793,0,0,0,145.558,15.947Z" transform="translate(-133.726 -10.433)" fill="#272727"/>
      </g>
    </g>
  </g>
</svg>
