<svg xmlns="http://www.w3.org/2000/svg" width="15.398" height="15.95" viewBox="0 0 15.398 15.95">
  <g id="controls" transform="translate(-0.75 15.7) rotate(-90)">
    <path id="Trazado_113" data-name="Trazado 113" d="M2.207,12.058V1.276a.276.276,0,0,0-.552,0V12.058a1.931,1.931,0,1,0,.552,0Zm-.276,3.289a1.379,1.379,0,1,1,1.379-1.379A1.381,1.381,0,0,1,1.931,15.347Z" fill="#232323" stroke="#232323" stroke-width="0.5"/>
    <path id="Trazado_114" data-name="Trazado 114" d="M22.907,6.434V1.276a.276.276,0,1,0-.552,0V6.416a1.988,1.988,0,0,0,0,3.951v5.255a.276.276,0,1,0,.552,0V10.35a1.986,1.986,0,0,0,0-3.917Zm-.333,3.395a1.437,1.437,0,1,1,1.437-1.437A1.438,1.438,0,0,1,22.574,9.829Z" transform="translate(-14.906)" fill="#232323" stroke="#232323" stroke-width="0.5"/>
    <path id="Trazado_115" data-name="Trazado 115" d="M45.863,2.931A1.931,1.931,0,1,0,43.655,4.84V15.623a.276.276,0,1,0,.552,0V4.84A1.933,1.933,0,0,0,45.863,2.931ZM43.931,4.311a1.379,1.379,0,1,1,1.379-1.379A1.381,1.381,0,0,1,43.931,4.311Z" transform="translate(-30.412)" fill="#232323" stroke="#232323" stroke-width="0.5"/>
  </g>
</svg>
