<svg xmlns="http://www.w3.org/2000/svg" width="20.127" height="25.489" viewBox="0 0 20.127 25.489">
  <g id="Capa_2" data-name="Capa 2" transform="translate(0 0.032)">
    <g id="Capa_1" data-name="Capa 1" transform="translate(0 -0.032)">
      <path id="Trazado_112" data-name="Trazado 112" d="M15.74,6.908V2.069A7.17,7.17,0,0,0,10.5-.023C5.645-.206,4.536,2.412,4.536,2.412V6.9H0L.735,23.128a3.42,3.42,0,0,0,2.512,2.329H16.88a3.42,3.42,0,0,0,2.512-2.329L20.127,6.9ZM6.4,3.05a6.528,6.528,0,0,1,7.594,0V6.6H6.4ZM17.072,22.2a1.143,1.143,0,0,1-1.115,1.035H4.167A1.143,1.143,0,0,1,3.055,22.2L2.512,9.175h15.1Z" transform="translate(0 0.032)" fill="#fff"/>
    </g>
  </g>
</svg>
