<svg xmlns="http://www.w3.org/2000/svg" width="13.365" height="10.501" viewBox="0 0 13.365 10.501">
  <g id="envelope" transform="translate(0 -54.82)">
    <g id="Grupo_100" data-name="Grupo 100" transform="translate(0 54.82)">
      <path id="Trazado_42" data-name="Trazado 42" d="M1.283,58.057q.254.179,1.529,1.063t1.954,1.361l.317.228q.242.175.4.283t.388.242a2.251,2.251,0,0,0,.429.2,1.182,1.182,0,0,0,.373.067H6.69a1.183,1.183,0,0,0,.373-.067,2.253,2.253,0,0,0,.429-.2q.227-.134.388-.242t.4-.283q.242-.175.317-.228l3.49-2.424a3.543,3.543,0,0,0,.91-.917,1.97,1.97,0,0,0,.366-1.126,1.2,1.2,0,0,0-1.193-1.193H1.193a1.065,1.065,0,0,0-.884.388,1.505,1.505,0,0,0-.309.97A1.742,1.742,0,0,0,.41,57.2,3.7,3.7,0,0,0,1.283,58.057Z" transform="translate(0 -54.82)" fill="#232323"/>
      <path id="Trazado_43" data-name="Trazado 43" d="M12.62,185.086q-2.446,1.656-3.714,2.573-.425.313-.69.489a4.259,4.259,0,0,1-.7.358,2.146,2.146,0,0,1-.82.183H6.675a2.147,2.147,0,0,1-.82-.183,4.261,4.261,0,0,1-.7-.358q-.265-.175-.69-.489-1.007-.738-3.707-2.573A3.95,3.95,0,0,1,0,184.437v5.922a1.149,1.149,0,0,0,.351.843,1.149,1.149,0,0,0,.843.351H12.172a1.2,1.2,0,0,0,1.193-1.194v-5.922A4.111,4.111,0,0,1,12.62,185.086Z" transform="translate(0 -181.051)" fill="#232323"/>
    </g>
  </g>
</svg>
