<svg xmlns="http://www.w3.org/2000/svg" viewBox="0 0 301.54 301.54"><defs><style>.cls-1{fill:#fff;}</style></defs><title>Recurso 4@1x</title><g id="Capa_2" data-name="Capa 2"><g id="construccin"><path class="cls-1" d="M150.77,0A150.77,150.77,0,1,0,301.54,150.77,150.77,150.77,0,0,0,150.77,0ZM58.72,239.93c-.74-9.25-1.7-11.61-2.35-18.55-3.17-33.83-20.79-59.15-20.79-59.15C62,192.56,59.3,215.17,59.3,215.17h0l34.41-13.56c3.16-1.11,6.48-3.14,7.81-6.37a18.2,18.2,0,0,0,.87-5.89c.51-8.57,2.92-17.31,8.56-24,1.67-2,3.6-3.77,4.7-6.1,1.36-2.88,1.31-6.2,1.22-9.39-.12-4.56-.29-9.29-2.33-13.37,2.58,5.16,5.38,9.95,5.82,15.87a19.35,19.35,0,0,1-5.15,14.76c-4.56,4.94-7.43,11.34-7.78,20-.07,1.75.23,5.81.33,7.51,2.7,47.48,18.44,73.42,18.44,73.42H122c-3.7,0-3.7,3.44-2.77,6.87A128,128,0,0,1,58.72,239.93Zm159.64,19.74a72.81,72.81,0,0,0-1.91-8.22c-2.44-7.44-2.54-36.38-2.54-36.38l2,10.88s8.81-34.54-6.58-50.76c-9.77-10.3-12.66-31.62-12.66-31.62L188.93,146s-.58,3.73-.68,4.36a67.52,67.52,0,0,1-3,12.07,37.84,37.84,0,0,1-6.35,10.88c-.24.3-.48.6-.71.91s-1.53,1.72-1.31,2.38c8.3,24.39-1,48.49-1,48.49l13.41,27.67-3.62,17.58v3.74a128.67,128.67,0,0,1-34,4.8c.82-5.9,2.83-19.37,5.24-28.77,3.17-12.33,15.79-38.21,15.79-38.21l2.47,3.87c4.93-11.63-3-41.89-3-41.89s25.29-22.58,7.47-67.66c10.06,14.83,9.14,37,9.14,37s14.36-3.51,19.39-15.5a22.12,22.12,0,0,0,.56-14.79c-.08-.29-1,1.38-1.1,1.11,1.47-1.9,1.54-5.89.59-6.66-.48-.39-1.11-.13-1.61.07,0-.25.19-.45.32-.65a2.59,2.59,0,0,0,.33-.85c.06-.3,0-.75-.3-.85s-.67,0-1-.15a.26.26,0,0,1-.1-.07.15.15,0,0,1,0-.16.32.32,0,0,1,.12-.11,1.64,1.64,0,0,1,.79-.11.71.71,0,0,0,.37-.12c.29-.21.22-.73.16-1,0,0-.11-.51-.16-.51-8-1.13-7.27-9-7.27-9a26.1,26.1,0,0,1,10.61,5.12c3-3.24,5.2-7.68,1.63-12.09a177.83,177.83,0,0,1-13.54-19.79c-1.9-3.14-7.84-14.91-9.79-16.7a7.92,7.92,0,0,0-3.34-1.6,64.38,64.38,0,0,0-18.11-2.29c-4.67.09-9.27,1.5-12,5.49-6.84,9.87-31.08,20-31.08,20s5.59,1.17,8.83,1.49c1.55.15,2.32.1,3.38.15,12.64.65,20.64,3.78,27.87,9.65a46.76,46.76,0,0,0-27.55-8.05c-8.16.58-15.82-3.48-23.92-3.14-8.31.34-15.44,4-22.11,8.62-6.46,4.51-12.32,9.62-16.74,16.23s-7.67,13.77-13.54,19.34C52.48,123.79,38,128.52,24,131.61A128.16,128.16,0,1,1,218.36,259.67Z"/></g></g></svg>