<svg id="Recurso_1" data-name="Recurso 1" xmlns="http://www.w3.org/2000/svg" width="31.624" height="31.624" viewBox="0 0 31.624 31.624">
  <g id="construccin" transform="translate(0)">
    <path id="Trazado_46" data-name="Trazado 46" d="M15.812,0A15.812,15.812,0,1,0,31.623,15.812,15.812,15.812,0,0,0,15.812,0ZM6.158,25.162c-.077-.97-.178-1.217-.247-1.945a14.326,14.326,0,0,0-2.181-6.2c2.771,3.181,2.487,5.552,2.487,5.552h0l3.608-1.422a1.324,1.324,0,0,0,.819-.668,1.909,1.909,0,0,0,.091-.618,4.262,4.262,0,0,1,.9-2.517,3.186,3.186,0,0,0,.493-.64,2.15,2.15,0,0,0,.125-.985,3.3,3.3,0,0,0-.244-1.4,4.443,4.443,0,0,1,.61,1.665,2.029,2.029,0,0,1-.54,1.548,3.144,3.144,0,0,0-.816,2.1c-.007.184.024.609.034.788a17.838,17.838,0,0,0,1.936,7.7h-.44c-.388,0-.388.361-.29.72a13.424,13.424,0,0,1-6.344-3.67Zm16.74,2.07a7.635,7.635,0,0,0-.2-.862,23.715,23.715,0,0,1-.266-3.815l.21,1.141s.924-3.623-.687-5.323a7.2,7.2,0,0,1-1.329-3.319l-.812.255s-.062.391-.071.457a7.081,7.081,0,0,1-.312,1.266,3.968,3.968,0,0,1-.668,1.146c-.025.031-.051.062-.074.1s-.161.181-.137.25a8.261,8.261,0,0,1-.1,5.085l1.406,2.9-.38,1.844v.392a13.492,13.492,0,0,1-3.565.5c.086-.619.3-2.031.55-3.017a31.864,31.864,0,0,1,1.658-4.01l.259.406c.517-1.22-.312-4.393-.312-4.393s2.652-2.368.783-7.1a7.435,7.435,0,0,1,.959,3.88A3.2,3.2,0,0,0,21.836,13.4a2.32,2.32,0,0,0,.059-1.551c-.008-.031-.1.145-.116.116a.708.708,0,0,0,.062-.7c-.051-.041-.116-.014-.169.007a.135.135,0,0,1,.034-.068.272.272,0,0,0,.034-.089c.006-.031,0-.079-.031-.089s-.07,0-.1-.016A.028.028,0,0,1,21.594,11a.016.016,0,0,1,0-.017.034.034,0,0,1,.012-.011.172.172,0,0,1,.083-.011.074.074,0,0,0,.039-.012c.031-.022.023-.077.017-.1,0,0-.011-.054-.017-.054a.864.864,0,0,1-.763-.944,2.737,2.737,0,0,1,1.112.537.911.911,0,0,0,.171-1.268A18.65,18.65,0,0,1,20.83,7.04,18.026,18.026,0,0,0,19.8,5.291a.831.831,0,0,0-.35-.168,6.752,6.752,0,0,0-1.9-.24,1.484,1.484,0,0,0-1.259.576c-.717,1.035-3.259,2.1-3.259,2.1s.587.125.926.156c.162.016.244.011.354.016A4.637,4.637,0,0,1,17.238,8.74a4.9,4.9,0,0,0-2.89-.845c-.856.062-1.659-.365-2.509-.329a4.386,4.386,0,0,0-2.319.9,6.549,6.549,0,0,0-1.756,1.7A10.955,10.955,0,0,1,6.346,12.2a8.755,8.755,0,0,1-3.83,1.6A13.441,13.441,0,1,1,22.9,27.234Z" transform="translate(0.001)" fill="#fff"/>
  </g>
</svg>
