<svg xmlns="http://www.w3.org/2000/svg" width="140" height="140" viewBox="0 0 140 140">
  <path id="Trazado_104" data-name="Trazado 104" d="M1010.244,620.654a70,70,0,1,0,70,70A70,70,0,0,0,1010.244,620.654Zm-42.738,111.4c-.344-4.3-.787-5.391-1.089-8.612a63.419,63.419,0,0,0-9.653-27.461c12.261,14.078,11.011,24.578,11.011,24.579h0l15.973-6.3a5.846,5.846,0,0,0,3.625-2.957,8.465,8.465,0,0,0,.407-2.735,18.748,18.748,0,0,1,3.972-11.124,13.767,13.767,0,0,0,2.183-2.835,9.505,9.505,0,0,0,.566-4.357,14.626,14.626,0,0,0-1.08-6.206c1.2,2.392,2.5,4.62,2.7,7.369a8.984,8.984,0,0,1-2.39,6.851,13.926,13.926,0,0,0-3.611,9.306c-.033.81.108,2.7.153,3.486,1.254,22.045,8.564,34.086,8.564,34.086h-1.964c-1.719,0-1.718,1.6-1.287,3.193A59.437,59.437,0,0,1,967.505,732.049Zm74.119,9.165a33.69,33.69,0,0,0-.887-3.816c-1.13-3.452-1.178-16.889-1.178-16.889l.914,5.05s4.09-16.034-3.056-23.567c-4.534-4.779-5.876-14.679-5.876-14.679l-3.579,1.148s-.272,1.73-.319,2.021a31.114,31.114,0,0,1-1.372,5.606,17.613,17.613,0,0,1-2.95,5.051c-.111.139-.221.279-.328.423-.155.208-.714.8-.61,1.1,3.855,11.324-.484,22.517-.484,22.517l6.225,12.846-1.682,8.16v1.735a59.54,59.54,0,0,1-15.8,2.23c.381-2.737,1.312-8.994,2.433-13.354,1.473-5.727,7.33-17.744,7.33-17.744l1.145,1.8c2.29-5.4-1.393-19.448-1.393-19.448s11.745-10.486,3.473-31.416c4.666,6.889,4.244,17.156,4.244,17.156s6.663-1.631,9-7.194a10.293,10.293,0,0,0,.261-6.87c-.037-.131-.474.642-.514.515.682-.882.718-2.732.276-3.091-.225-.182-.518-.061-.75.035,0-.121.091-.21.152-.3a1.15,1.15,0,0,0,.15-.394c.027-.139.024-.347-.14-.4a4.227,4.227,0,0,1-.455-.071.094.094,0,0,1-.045-.031.07.07,0,0,1,0-.075.146.146,0,0,1,.058-.052.816.816,0,0,1,.363-.052.322.322,0,0,0,.174-.052c.133-.1.1-.34.073-.479a.982.982,0,0,0-.073-.239,3.852,3.852,0,0,1-3.378-4.185,12.127,12.127,0,0,1,4.928,2.375c1.371-1.5,2.411-3.563.754-5.614a82.016,82.016,0,0,1-6.285-9.186c-.882-1.46-3.64-6.923-4.544-7.756a3.7,3.7,0,0,0-1.553-.741,29.877,29.877,0,0,0-8.408-1.063,6.627,6.627,0,0,0-5.59,2.549c-3.173,4.581-14.428,9.3-14.428,9.3s2.6.544,4.1.69c.722.07,1.079.047,1.573.073,5.868.3,9.582,1.754,12.941,4.478a21.736,21.736,0,0,0-12.8-3.738c-3.786.268-7.344-1.613-11.106-1.458-3.854.16-7.166,1.84-10.261,4a29.034,29.034,0,0,0-7.774,7.535c-2.05,3.063-3.561,6.4-6.286,8.983-3.679,3.495-10.426,5.691-16.883,7.127a59.5,59.5,0,1,1,90.22,59.454Z" transform="translate(-940.244 -620.654)" fill="#efefef"/>
</svg>
