<svg xmlns="http://www.w3.org/2000/svg" width="319.818" height="50.627" viewBox="0 0 319.818 50.627">
  <g id="Grupo_107" data-name="Grupo 107" transform="translate(-375 -37.065)">
    <g id="Recurso_1" data-name="Recurso 1" transform="translate(375 37.065)">
      <g id="construccin">
        <path id="Trazado_46" data-name="Trazado 46" d="M25.314,0A25.314,25.314,0,1,0,50.627,25.314,25.314,25.314,0,0,0,25.314,0ZM9.859,40.283c-.124-1.553-.285-1.949-.395-3.114a22.935,22.935,0,0,0-3.491-9.931c4.436,5.092,3.982,8.888,3.982,8.888h0l5.777-2.277a2.119,2.119,0,0,0,1.311-1.069,3.056,3.056,0,0,0,.146-.989,6.823,6.823,0,0,1,1.437-4.029,5.1,5.1,0,0,0,.789-1.024,3.442,3.442,0,0,0,.2-1.577,5.284,5.284,0,0,0-.391-2.245,7.113,7.113,0,0,1,.977,2.665,3.249,3.249,0,0,1-.865,2.478,5.034,5.034,0,0,0-1.306,3.358c-.012.294.039.975.055,1.261.453,7.972,3.1,12.327,3.1,12.327h-.705c-.621,0-.621.578-.465,1.153A21.491,21.491,0,0,1,9.859,40.283Zm26.8,3.314a12.223,12.223,0,0,0-.321-1.38,37.966,37.966,0,0,1-.426-6.108l.336,1.827s1.479-5.8-1.1-8.522C33.505,27.684,33.02,24.1,33.02,24.1l-1.3.408s-.1.626-.114.732a11.337,11.337,0,0,1-.5,2.026A6.353,6.353,0,0,1,30.037,29.1c-.04.05-.081.1-.119.153s-.257.289-.22.4a13.226,13.226,0,0,1-.168,8.141l2.251,4.646-.608,2.952v.628a21.6,21.6,0,0,1-5.708.806c.138-.991.475-3.252.88-4.83A51.014,51.014,0,0,1,29,35.577l.415.65c.828-1.953-.5-7.033-.5-7.033s4.246-3.791,1.254-11.36c1.689,2.49,1.535,6.212,1.535,6.212a5.128,5.128,0,0,0,3.255-2.6,3.714,3.714,0,0,0,.094-2.483c-.013-.049-.168.232-.185.186a1.134,1.134,0,0,0,.1-1.118c-.081-.065-.186-.022-.27.012a.216.216,0,0,1,.054-.109.435.435,0,0,0,.055-.143c.01-.05,0-.126-.05-.143s-.112,0-.168-.025a.044.044,0,0,1-.017-.012.025.025,0,0,1,0-.027.054.054,0,0,1,.02-.018.275.275,0,0,1,.133-.018.119.119,0,0,0,.062-.02c.049-.035.037-.123.027-.168,0,0-.018-.086-.027-.086a1.384,1.384,0,0,1-1.221-1.511,4.382,4.382,0,0,1,1.781.86,1.459,1.459,0,0,0,.274-2.03,29.858,29.858,0,0,1-2.273-3.323,28.858,28.858,0,0,0-1.644-2.8,1.33,1.33,0,0,0-.561-.269,10.809,10.809,0,0,0-3.041-.384,2.376,2.376,0,0,0-2.015.922c-1.148,1.657-5.218,3.358-5.218,3.358s.939.2,1.483.25c.26.025.39.017.567.025a7.423,7.423,0,0,1,4.679,1.62,7.851,7.851,0,0,0-4.626-1.352c-1.37.1-2.656-.584-4.016-.527a7.021,7.021,0,0,0-3.712,1.447,10.484,10.484,0,0,0-2.811,2.725,17.538,17.538,0,0,1-2.273,3.247C8.811,20.784,6.38,21.578,4.029,22.1A21.518,21.518,0,1,1,36.662,43.6Z" fill="#fff"/>
      </g>
    </g>
    <g id="Recurso_2" data-name="Recurso 2" transform="translate(442.053 55.387)">
      <g id="construccin-2" data-name="construccin" transform="translate(0 0)">
        <path id="Trazado_47" data-name="Trazado 47" d="M408.72,14.323V.257L422.482.246a5.393,5.393,0,0,1,2.793.634,3.415,3.415,0,0,1,1.787,2.938,3.119,3.119,0,0,1-1.438,2.957l-.12.1L425.73,7a3.423,3.423,0,0,1,1.877,2.379,3.819,3.819,0,0,1-2.983,4.748,6.635,6.635,0,0,1-1.608.19C418.31,14.332,408.72,14.323,408.72,14.323Zm3.935-3.471h9.721c.148,0,.3,0,.447-.014a.888.888,0,0,0,.919-.891,1.4,1.4,0,0,0-.031-.559,1.131,1.131,0,0,0-.341-.48,1.4,1.4,0,0,0-.924-.193h-9.791Zm0-5.071h9.512a.874.874,0,0,0,.952-.994v-.26a.751.751,0,0,0-.606-.762,3.491,3.491,0,0,0-.489-.053h-9.369Z" transform="translate(-294.579 -0.17)" fill="#fff"/>
        <path id="Trazado_48" data-name="Trazado 48" d="M855.154,5.786v8.565H840.228a4.641,4.641,0,0,1-2.879-.866,3.762,3.762,0,0,1-1.5-2.6,7.144,7.144,0,0,1-.048-.913V4.239A3.887,3.887,0,0,1,838.994.394a6.143,6.143,0,0,1,1.24-.114h14.6V3.734H841.01a1.178,1.178,0,0,0-1.293,1.285v4.6a1.153,1.153,0,0,0,1.22,1.257H851.4V8.895h-5.775V5.786Z" transform="translate(-602.389 -0.198)" fill="#fff"/>
        <path id="Trazado_49" data-name="Trazado 49" d="M656.17,14.324V.247h14.949A4.638,4.638,0,0,1,674,1.085a3.572,3.572,0,0,1,1.539,2.868c.05,2.178.042,4.357,0,6.538a3.826,3.826,0,0,1-3.111,3.7,6.393,6.393,0,0,1-1.26.137Zm3.91-10.612v7.149h10.229a1.171,1.171,0,0,0,1.338-1.3V4.983a1.155,1.155,0,0,0-1.279-1.268Z" transform="translate(-472.925 -0.171)" fill="#fff"/>
        <path id="Trazado_50" data-name="Trazado 50" d="M764.33,4.876v9.45h-3.91V.26h3.91a.634.634,0,0,1,.388.151L774.8,9.682V.26h3.91V14.338H774.8a.559.559,0,0,1-.352-.131C771.984,11.917,764.33,4.876,764.33,4.876Z" transform="translate(-548.061 -0.184)" fill="#fff"/>
        <path id="Trazado_51" data-name="Trazado 51" d="M485.606.3h3.91V9.6a1.165,1.165,0,0,0,.709,1.192,1.519,1.519,0,0,0,.572.1h7.953a1.168,1.168,0,0,0,1.287-1.31V.3h3.91v9.9a3.952,3.952,0,0,1-3.664,4.116,10.429,10.429,0,0,1-1.117.047h-9.124a4.712,4.712,0,0,1-2.689-.721,3.737,3.737,0,0,1-1.751-3.217c-.031-3.351,0-6.686-.014-10.031C485.589.375,485.6.353,485.606.3Z" transform="translate(-349.981 -0.213)" fill="#fff"/>
        <path id="Trazado_52" data-name="Trazado 52" d="M603.594,10.9v3.46H587V.31h3.91V10.9Z" transform="translate(-423.071 -0.22)" fill="#fff"/>
        <rect id="Rect치ngulo_91" data-name="Rect치ngulo 91" width="3.887" height="14.055" transform="translate(156.936 0.09)" fill="#fff"/>
        <rect id="Rect치ngulo_92" data-name="Rect치ngulo 92" width="3.887" height="14.055" transform="translate(205.358 0.09)" fill="#fff"/>
        <path id="Trazado_53" data-name="Trazado 53" d="M259.55.07h17.476V3.522H263.479v1.9h11.76V8.777H263.482v1.935h13.592v3.471H259.55Z" transform="translate(-187.067 -0.047)" fill="#fff"/>
        <path id="Trazado_54" data-name="Trazado 54" d="M150.39-.009h4.287A.388.388,0,0,1,155.1.27l3.809,8.322S161.5,2.923,162.7.262a.371.371,0,0,1,.4-.271h2.879a.346.346,0,0,1,.38.243l3.8,8.358s2.608-5.672,3.818-8.339a.369.369,0,0,1,.4-.263H178.7l-7.1,13.882a.422.422,0,0,1-.452.279h-2.167a.349.349,0,0,1-.38-.243c-1.3-2.8-4.074-8.7-4.074-8.7l-4.052,8.677a.366.366,0,0,1-.4.26h-2.139a.4.4,0,0,1-.419-.251Z" transform="translate(-108.391 0.012)" fill="#fff"/>
        <path id="Trazado_55" data-name="Trazado 55" d="M89.782,0a4.335,4.335,0,0,1,3.231,1.24,3.954,3.954,0,0,1,1.134,2.89L94.105,10.4a3.609,3.609,0,0,1-2.329,3.3,5.767,5.767,0,0,1-2.382.45H78.731a4.714,4.714,0,0,1-2.826-.8,3.675,3.675,0,0,1-1.625-3.01V3.8a3.558,3.558,0,0,1,.48-1.765A3.91,3.91,0,0,1,76.037.712a3.664,3.664,0,0,1,1.8-.6c.559-.028,1.145-.022,1.72-.031L80.966.064,82.557.05H89.8ZM79.508,3.482A1.178,1.178,0,0,0,78.19,4.8V9.333a1.193,1.193,0,0,0,1.332,1.338h9.319A1.222,1.222,0,0,0,90.215,9.3V4.834a1.208,1.208,0,0,0-1.36-1.346Z" transform="translate(-53.536 0.003)" fill="#fff"/>
        <path id="Trazado_56" data-name="Trazado 56" d="M347.011,9.464l3.773,4.683h-4.153a.525.525,0,0,1-.475-.223L342.973,9.83a.447.447,0,0,0-.3-.168H336v4.468H332.07V0l13.944.025a4.408,4.408,0,0,1,4.421,3.555,4.7,4.7,0,0,1-3.195,5.792C347.173,9.394,347.114,9.422,347.011,9.464ZM336,6.328h9.274c.74-.036,1.192-.324,1.3-.916a3.63,3.63,0,0,0-.02-1.1c-.089-.631-.857-.821-1.4-.821H336.01Z" transform="translate(-239.334 0.003)" fill="#fff"/>
        <path id="Trazado_57" data-name="Trazado 57" d="M3.91,9.7v4.426H0V0H13.963a4.588,4.588,0,0,1,4.468,3.957,5.441,5.441,0,0,1-.584,3.63,4.1,4.1,0,0,1-3.161,2.027,9.054,9.054,0,0,1-1.167.056Zm0-3.351H13.2A1.222,1.222,0,0,0,14.522,5V4.689a1.056,1.056,0,0,0-.662-1.033,2.1,2.1,0,0,0-.793-.165H3.918Z" transform="translate(0 0.003)" fill="#fff"/>
      </g>
    </g>
  </g>
</svg>
