<svg xmlns="http://www.w3.org/2000/svg" width="225.983" height="42.879" viewBox="0 0 225.983 42.879">
  <g id="Capa_2" data-name="Capa 2" transform="translate(0.01 0)">
    <g id="construccin" transform="translate(-0.01 0)">
      <path id="Trazado_126" data-name="Trazado 126" d="M21.429,0A21.416,21.416,0,1,0,36.588,6.264,21.439,21.439,0,0,0,21.429,0ZM8.358,34.109a17.48,17.48,0,0,0-.331-2.647,19.525,19.525,0,0,0-2.955-8.415c3.758,4.326,3.38,7.54,3.38,7.54h0l4.869-1.938a1.844,1.844,0,0,0,1.111-.9,2.577,2.577,0,0,0,.142-.851,5.744,5.744,0,0,1,1.206-3.4,3.309,3.309,0,0,0,.78-.851,2.931,2.931,0,0,0,0-1.371,4.728,4.728,0,0,0-.331-1.891,6.453,6.453,0,0,1,.827,2.246,2.837,2.837,0,0,1-.733,2.1,4.207,4.207,0,0,0-1.111,2.86,8.178,8.178,0,0,0,0,1.064A24.063,24.063,0,0,0,17.836,38.08h-.5c-.52,0-.52.5-.378.969a18.036,18.036,0,0,1-8.6-4.94ZM31.05,36.9a9.219,9.219,0,0,0-.284-1.158,34.062,34.062,0,0,1-.355-5.177L30.7,32.1s1.253-4.893-.946-7.209a9.975,9.975,0,0,1-1.8-4.491l-1.087.355v.615a8.77,8.77,0,0,1-.425,1.726,5.248,5.248,0,0,1-.9,1.536v.142s-.236.236-.189.331a11.11,11.11,0,0,1-.165,6.9L27.1,35.929l-.52,2.506v.52a19.146,19.146,0,0,1-4.728.685c.118-.827.4-2.766.733-4.089a43.327,43.327,0,0,1,2.364-5.437l.355.567a13.993,13.993,0,0,0-.425-5.957s3.593-3.215,1.064-9.621a10.164,10.164,0,0,1,1.3,5.248,4.3,4.3,0,0,0,2.742-2.2,3.1,3.1,0,0,0,0-2.1s-.142.189-.165.165a.993.993,0,0,0,0-.946h-.236a.142.142,0,0,0,0-.165h0a1.158,1.158,0,0,1-1.206-1.773,3.309,3.309,0,0,1,1.489.733c.425-.473.756-1.087.236-1.726a25.6,25.6,0,0,1-1.867-2.884,23.189,23.189,0,0,0-1.395-2.364,1.276,1.276,0,0,0-.473-.236,9.455,9.455,0,0,0-2.577-.331,2.1,2.1,0,0,0-1.726.78,13.308,13.308,0,0,1-4.4,2.931s.78.165,1.253.213H19.4a6.122,6.122,0,0,1,3.971,1.371,6.689,6.689,0,0,0-3.924-1.158c-1.158,0-2.364-.5-3.4-.449A5.886,5.886,0,0,0,12.9,11.441,8.486,8.486,0,0,0,10.532,13.8a15.955,15.955,0,0,1-1.938,2.742,11.464,11.464,0,0,1-5.153,2.175,18.2,18.2,0,1,1,27.609,18.2Z" transform="translate(0.01 0)" fill="#fff"/>
      <g id="Grupo_236" data-name="Grupo 236" transform="translate(48.41 8.297)">
        <path id="Trazado_127" data-name="Trazado 127" d="M26.45,21.639,25.414,29.3H20.47L24.2,2.1h6.839a3.048,3.048,0,0,1,.938,0,5.257,5.257,0,0,1,.918.274,5.081,5.081,0,0,1,.977.489,3.908,3.908,0,0,1,1.153,1.368A3.908,3.908,0,0,1,35.3,6.534L33.914,16.812a5.1,5.1,0,0,1-1.72,3.342,4.885,4.885,0,0,1-1.309.821,6.937,6.937,0,0,1-2.56.586ZM30.221,7.96a1.563,1.563,0,0,0,0-.645.762.762,0,0,0-.254-.332.528.528,0,0,0-.391-.156H28.54L27.173,16.91h.977a.645.645,0,0,0,.449-.137.977.977,0,0,0,.352-.293,1.661,1.661,0,0,0,.234-.586Z" transform="translate(-20.47 -2.037)" fill="#fff"/>
        <path id="Trazado_128" data-name="Trazado 128" d="M39.554,24.612a5.393,5.393,0,0,1-.508,1.72,4.416,4.416,0,0,1-.84,1.231,4.631,4.631,0,0,1-1.055.84,6.781,6.781,0,0,1-1.075.528,5.861,5.861,0,0,1-.821.274l-.684.1a3.673,3.673,0,0,1-.645,0h-1.8a5.139,5.139,0,0,1-.958-.1,6.781,6.781,0,0,1-.938-.254,3.4,3.4,0,0,1-.977-.528A3.908,3.908,0,0,1,28.1,27.015a4.143,4.143,0,0,1-.254-2.443L30.35,6.79h0a3.439,3.439,0,0,0,.156-.606,4.709,4.709,0,0,1,.508-1.231,7.816,7.816,0,0,1,1.036-1.407,4.612,4.612,0,0,1,1.778-1.114,5.686,5.686,0,0,1,2.11-.352h1.954a3.908,3.908,0,0,1,.958.117,4.963,4.963,0,0,1,.938.274,4.768,4.768,0,0,1,.938.489,3.693,3.693,0,0,1,1.192,1.407,4.162,4.162,0,0,1,.254,2.462ZM32.871,23.42a.547.547,0,0,1,0,.254,1.328,1.328,0,0,0,0,.371.684.684,0,0,0,.234.371.723.723,0,0,0,.508.156.84.84,0,0,0,.528-.156,1.016,1.016,0,0,0,.332-.371,1.368,1.368,0,0,0,.2-.371.879.879,0,0,0,0-.254L36.8,8a1.368,1.368,0,0,0,0-.7.723.723,0,0,0-.254-.352,1.036,1.036,0,0,0-.489-.156.743.743,0,0,0-.508.156.938.938,0,0,0-.332.352,1.954,1.954,0,0,0-.176.41l-.1.254h0Z" transform="translate(-13.506 -2.021)" fill="#fff"/>
        <path id="Trazado_129" data-name="Trazado 129" d="M41.278,2.109l-.8,19.131L45.538,2.109h4.475l-.352,18.818,4.26-18.818H59.08l-6.722,27.2H45.85V16.862L42.489,29.31H35.65l.821-27.26Z" transform="translate(-5.987 -2.048)" fill="#fff"/>
        <path id="Trazado_130" data-name="Trazado 130" d="M60.529,6.809H54.667l-1,6.429h5.862l-.645,4.729H53.025l-.938,6.664H57.95L57.3,29.36H46.44L50.348,2.1H61.213Z" transform="translate(4.308 -2.001)" fill="#fff"/>
        <path id="Trazado_131" data-name="Trazado 131" d="M57.08,2.1h6.8a3.127,3.127,0,0,1,.958,0,4.964,4.964,0,0,1,.938.274,6.507,6.507,0,0,1,.977.489,3.908,3.908,0,0,1,1.153,1.426,4.143,4.143,0,0,1,.254,2.443l-.938,6.429a4.768,4.768,0,0,1-.391,1.485,1.032,1.032,0,0,1-.215.469,2.89,2.89,0,0,1-.156.508,3.908,3.908,0,0,1-.743.86,6.233,6.233,0,0,1-.84.625l.117.1h.117a3.908,3.908,0,0,1,1,1.407,4.475,4.475,0,0,1,.176,2.228L65.013,29.3H60.069l1.251-9.243a1.172,1.172,0,0,0,0-.7.782.782,0,0,0-.254-.371.625.625,0,0,0-.391-.156H59.62L58.154,29.3H53.23Zm3.342,11.138h1a.723.723,0,0,0,.41-.117,1.075,1.075,0,0,0,.352-.274,1.114,1.114,0,0,0,.254-.528,1.582,1.582,0,0,0,.117-.606c0-.352.137-.9.2-1.426s.156-1,.234-1.427a6.471,6.471,0,0,0,0-.7c0-.547,0-.918-.274-1.094a.606.606,0,0,0-.449-.156H61.242Z" transform="translate(10.787 -2.038)" fill="#fff"/>
        <path id="Trazado_132" data-name="Trazado 132" d="M74.348,12.329a5.024,5.024,0,0,1-.156.782,5.317,5.317,0,0,1-.215.664l-.235.469a1.368,1.368,0,0,1-.254.41,3.908,3.908,0,0,1-.743.84,6.076,6.076,0,0,1-.84.606l.274.234a3.908,3.908,0,0,1,.958,1.407,4.416,4.416,0,0,1,.176,2.228l-.664,4.709a5.119,5.119,0,0,1-.508,1.7,4.846,4.846,0,0,1-1.954,2.052,6.78,6.78,0,0,1-1.075.528,5.373,5.373,0,0,1-.782.274l-.7.078a3.79,3.79,0,0,1-.645,0H60.2L64.108,2.05h6.82a3.908,3.908,0,0,1,.958.117,4.416,4.416,0,0,1,.918.274,5.863,5.863,0,0,1,1,.489A4.025,4.025,0,0,1,74.954,4.3,3.908,3.908,0,0,1,75.227,6.6Zm-5.862,6.839a1.5,1.5,0,0,0-.293-1.114.645.645,0,0,0-.43-.156h-1l-.977,6.742h1.036a.645.645,0,0,0,.43-.156,1.309,1.309,0,0,0,.352-.313,1.5,1.5,0,0,0,.234-.606ZM70.029,8.03a1.055,1.055,0,0,0-.313-.977.684.684,0,0,0-.41-.2h-1l-.2,1.212-.489,4.221h1.036a.7.7,0,0,0,.449-.156.919.919,0,0,0,.332-.293,1.662,1.662,0,0,0,.234-.586Z" transform="translate(17.437 -2.048)" fill="#fff"/>
        <path id="Trazado_133" data-name="Trazado 133" d="M82.488,2.08,79.3,24.65a5.628,5.628,0,0,1-.508,1.7,5.061,5.061,0,0,1-.821,1.212,4.162,4.162,0,0,1-1.036.84,6.917,6.917,0,0,1-1.094.528,5.862,5.862,0,0,1-.821.274l-.625.078a3.792,3.792,0,0,1-.645,0H71.8a5.335,5.335,0,0,1-.977-.1,8.676,8.676,0,0,1-.938-.254,3.3,3.3,0,0,1-.958-.528,3.732,3.732,0,0,1-1.153-1.387,4.2,4.2,0,0,1-.254-2.462L70.744,2.08h4.9l-2.99,21.339v.254a1.329,1.329,0,0,0,0,.371.645.645,0,0,0,.215.371.743.743,0,0,0,.508.156.918.918,0,0,0,.547-.156,1.075,1.075,0,0,0,.313-.352,1.485,1.485,0,0,0,.176-.352.88.88,0,0,0,0-.254h0L77.544,2.08Z" transform="translate(24.343 -2.02)" fill="#fff"/>
        <path id="Trazado_134" data-name="Trazado 134" d="M79.094,29.31H74.17L78.078,2.05H83L79.094,29.408Z" transform="translate(30.766 -2.048)" fill="#fff"/>
        <path id="Trazado_135" data-name="Trazado 135" d="M90.03,24.64,89.4,29.31H77.68L81.588,2.05h4.944L83.249,24.64Z" transform="translate(34.115 -2.048)" fill="#fff"/>
        <path id="Trazado_136" data-name="Trazado 136" d="M97.068,24.669a5.627,5.627,0,0,1-.489,1.7,5.862,5.862,0,0,1-.84,1.212,4.162,4.162,0,0,1-1.036.84,6.782,6.782,0,0,1-1.075.528,5.862,5.862,0,0,1-.821.274l-.684.1a3.576,3.576,0,0,1-.645,0H84.64L88.548,2.06h6.8a3.908,3.908,0,0,1,.958.117,4.964,4.964,0,0,1,.938.274,4.279,4.279,0,0,1,.938.489,3.693,3.693,0,0,1,1.192,1.407,4.24,4.24,0,0,1,.254,2.462Zm-6.8,0h.938a.625.625,0,0,0,.41-.156,1.68,1.68,0,0,0,.352-.313,1.251,1.251,0,0,0,.254-.606l2.15-15.535a1.368,1.368,0,0,0,0-.7A.723.723,0,0,0,94.117,7a.547.547,0,0,0-.41-.156H92.691Z" transform="translate(40.755 -2.039)" fill="#fff"/>
        <path id="Trazado_137" data-name="Trazado 137" d="M96.564,29.281H91.62L95.43,2.08h4.944L96.564,29.438Z" transform="translate(47.415 -2.02)" fill="#fff"/>
        <path id="Trazado_138" data-name="Trazado 138" d="M95.06,29.281l3.791-27.2h4.924l2.892,14.656L108.622,2.08h4.924l-3.908,27.358h-4.924l-2.853-13.62L99.906,29.34Z" transform="translate(50.697 -2.02)" fill="#fff"/>
        <path id="Trazado_139" data-name="Trazado 139" d="M111.875,17.977h-.958l.7-4.729h5.862L115.1,29.311h-6.8a5.139,5.139,0,0,1-.957-.1,6.781,6.781,0,0,1-.938-.254,3.4,3.4,0,0,1-.977-.528,3.908,3.908,0,0,1-1.153-1.407,4.143,4.143,0,0,1-.254-2.443l2.5-17.821a5.862,5.862,0,0,1,.137-.606,5.666,5.666,0,0,1,.528-1.231,6.975,6.975,0,0,1,1.036-1.407A4.612,4.612,0,0,1,110,2.4a5.686,5.686,0,0,1,2.11-.352h1.954a3.909,3.909,0,0,1,.958.117,5.862,5.862,0,0,1,.918.254,4.826,4.826,0,0,1,.958.469,3.908,3.908,0,0,1,1.192,1.446A4.045,4.045,0,0,1,118.3,6.8l-.664,4.69h-4.924l.489-3.478a1.368,1.368,0,0,0,0-.7.9.9,0,0,0-.254-.371.86.86,0,0,0-.489-.176.84.84,0,0,0-.547.176,1,1,0,0,0-.332.371,1.954,1.954,0,0,0-.176.41,1.034,1.034,0,0,0,0,.254h0l-2.286,15.477V23.7a1.33,1.33,0,0,0,0,.371.782.782,0,0,0,.215.371.8.8,0,0,0,.528.156h.958Z" transform="translate(59.169 -2.049)" fill="#fff"/>
      </g>
    </g>
  </g>
</svg>
