<svg xmlns="http://www.w3.org/2000/svg" width="39.717" height="39.717" viewBox="0 0 39.717 39.717">
  <path id="weightlifting" d="M38.173,31.546V25.7H34.25a10.337,10.337,0,0,0-6.742-4.959,9.256,9.256,0,0,0,1.451-3.4,3.571,3.571,0,0,0,.189-6.812V9.29a9.29,9.29,0,1,0-18.58,0v1.241a3.571,3.571,0,0,0,.189,6.812,9.249,9.249,0,0,0,1.451,3.4A10.343,10.343,0,0,0,5.466,25.7H1.542v5.845H0v2.327H1.542v5.843H38.173V33.873h1.543V31.546Zm-31.5,5.843H3.869V28.029H6.674ZM19.858,2.327A6.971,6.971,0,0,1,26.814,9a9.671,9.671,0,0,1-2.993-2.62L22.981,5.2l-.953,1.078A8.366,8.366,0,0,1,19.68,7.78a18.1,18.1,0,0,1-6.785,1.5,6.97,6.97,0,0,1,6.963-6.95Zm-8.1,12.823h-.033a1.244,1.244,0,0,1,.008-2.488h1.164V11.606c5.266-.216,8.377-1.865,9.836-2.907a9.26,9.26,0,0,0,4.09,2.773v1.191h1.164a1.244,1.244,0,0,1,.009,2.488l-1.1-.018-.109,1.061a6.964,6.964,0,0,1-13.853,0l-.109-1.061Zm10.3,9.347-2.2,3.035-2.2-3.035a9.3,9.3,0,0,0,4.4,0Zm8.656,12.892H9V33.873H30.714Zm0-11.688v5.845H9V25.7H8.289a7.969,7.969,0,0,1,5.314-2.83L19.858,31.5l6.253-8.627a7.973,7.973,0,0,1,5.315,2.83Zm5.132,11.688H33.041V28.029h2.805Zm0,0" transform="translate(0.001 0)" fill="#fff"/>
</svg>
