<svg xmlns="http://www.w3.org/2000/svg" width="32.442" height="37.58" viewBox="0 0 32.442 37.58">
  <g id="Grupo_109" data-name="Grupo 109" transform="translate(-1718 -1644.205)">
    <path id="Trazado_87" data-name="Trazado 87" d="M0,289.5H32.3V272H0Zm2.187-15.31H30.112V287.31H2.187Zm0,0" transform="translate(1718 1372.205)" fill="#fff"/>
    <path id="Trazado_88" data-name="Trazado 88" d="M272,289.5h32.376V272H272Zm2.187-15.31h28V287.31h-28Zm0,0" transform="translate(1446.065 1392.288)" fill="#fff"/>
    <path id="Trazado_95" data-name="Trazado 95" d="M325.3,354.175l-2.507-2.507-1.547,1.546,4.054,4.054,6.241-6.241-1.547-1.546Zm0,0" transform="translate(1409.299 1320.456)" fill="#fff"/>
    <path id="Trazado_96" data-name="Trazado 96" d="M64.092,328.359,61,331.452l-3.074-3.074-1.547,1.547L59.453,333l-3.093,3.093,1.547,1.547L61,334.545l3.093,3.093,1.547-1.547L62.546,333l3.093-3.093Zm0,0" transform="translate(1673.482 1319.955)" fill="#fff"/>
  </g>
</svg>
