<svg id="test" xmlns="http://www.w3.org/2000/svg" width="29.567" height="38.816" viewBox="0 0 29.567 38.816">
  <path id="Trazado_79" data-name="Trazado 79" d="M9.1,0V2.274H0V38.816H29.567V2.274h-9.1V0Zm2.274,2.274H18.2V4.549H11.372ZM27.293,4.549V36.542H2.274V4.549H9.1V6.823H20.47V4.549Zm0,0" fill="#fff"/>
  <path id="Trazado_80" data-name="Trazado 80" d="M60,129.173H80.47V120H60Zm2.274-6.9H78.2V126.9H62.274Zm0,0" transform="translate(-55.451 -110.902)" fill="#fff"/>
  <path id="Trazado_81" data-name="Trazado 81" d="M60,271H80.47v2.274H60Zm0,0" transform="translate(-55.451 -250.455)" fill="#fff"/>
  <path id="Trazado_82" data-name="Trazado 82" d="M60,331H80.47v2.274H60Zm0,0" transform="translate(-55.451 -305.906)" fill="#fff"/>
  <path id="Trazado_83" data-name="Trazado 83" d="M60,391H80.47v2.274H60Zm0,0" transform="translate(-55.451 -361.357)" fill="#fff"/>
</svg>
