<svg xmlns="http://www.w3.org/2000/svg" xmlns:xlink="http://www.w3.org/1999/xlink" width="43.218" height="43.218" viewBox="0 0 43.218 43.218">
  <defs>
    <linearGradient id="linear-gradient" x1="1.066" y1="0.5" x2="0" y2="0.5" gradientUnits="objectBoundingBox">
      <stop offset="0" stop-color="#c2222e"/>
      <stop offset="1" stop-color="#ee4037"/>
    </linearGradient>
  </defs>
  <g id="skype" transform="translate(0 0)">
    <path id="Trazado_102" data-name="Trazado 102" d="M40.563,22.822c.025-.4.038-.81.038-1.213A19.056,19.056,0,0,0,21.609,2.532c-.4,0-.811.013-1.215.038A12.725,12.725,0,0,0,0,12.746a12.685,12.685,0,0,0,2.571,7.648c-.025.4-.038.811-.038,1.215A19.125,19.125,0,0,0,21.609,40.685c.4,0,.811-.013,1.215-.038A12.679,12.679,0,0,0,40.563,22.822ZM30.472,40.685a10.319,10.319,0,0,1-6.846-2.646c-.345.026-1.015.114-2.017.114A16.563,16.563,0,0,1,5.065,21.609c0-1,.089-1.681.114-2.016a10.314,10.314,0,0,1-2.646-6.847A10.183,10.183,0,0,1,12.661,2.532a10.342,10.342,0,0,1,6.931,2.646c.335-.025,1.013-.114,2.017-.114a16.521,16.521,0,0,1,16.46,16.544c0,1-.089,1.681-.114,2.016a10.546,10.546,0,0,1,2.731,6.847A10.225,10.225,0,0,1,30.472,40.685Zm0,0" transform="translate(0 0)" fill="url(#linear-gradient)"/>
    <path id="Trazado_103" data-name="Trazado 103" d="M131.48,101.764a6.131,6.131,0,0,1-3.264-.845,3.034,3.034,0,0,1-.515-.421,3.023,3.023,0,0,1,.517-.422c2.242-1.5,6.179-.636,7.014.39a3.263,3.263,0,0,0,3.019,1.3,3.707,3.707,0,0,0,2.911-6c-3.857-4.852-12.52-5.16-17.244-2a7.758,7.758,0,0,0,0,13.48,13.926,13.926,0,0,0,7.565,2.124,6.131,6.131,0,0,1,3.264.845,2.1,2.1,0,0,1,.481.421,2.1,2.1,0,0,1-.482.422c-2.2,1.47-6.228.68-7.1-.391a3.89,3.89,0,0,0-6.362.805,3.663,3.663,0,0,0,.431,3.9c2.262,2.845,6.16,4.126,9.766,4.126a13.576,13.576,0,0,0,7.478-2.121,8.165,8.165,0,0,0,3.917-6.742c0-4.6-4.552-8.863-11.4-8.863Zm6.073,13.5a11.024,11.024,0,0,1-6.073,1.7c-2.838,0-6.026-.959-7.784-3.17a1.129,1.129,0,0,1-.132-1.224,1.376,1.376,0,0,1,2.116-.308c1.776,2.185,7.276,3.029,10.469.9a2.753,2.753,0,0,0,0-5.055,8.61,8.61,0,0,0-4.67-1.271,11.342,11.342,0,0,1-6.16-1.7,5.243,5.243,0,0,1,0-9.267c3.677-2.455,10.869-2.283,13.857,1.474a1.128,1.128,0,0,1,.132,1.224,1.168,1.168,0,0,1-1.061.67c-.625-.027-.711.06-1.054-.362-1.746-2.148-7.152-3.056-10.384-.9a2.7,2.7,0,0,0,0,5.055,8.609,8.609,0,0,0,4.67,1.271,11.026,11.026,0,0,1,6.075,1.7,5.244,5.244,0,0,1,0,9.267Zm0,0" transform="translate(-109.871 -83.954)" fill="url(#linear-gradient)"/>
  </g>
</svg>
