<svg xmlns="http://www.w3.org/2000/svg" width="45.224" height="45.224" viewBox="0 0 45.224 45.224">
  <g id="dumbell" transform="translate(1.034 -162.209)">
    <g id="Grupo_108" data-name="Grupo 108" transform="translate(-1.034 162.209)">
      <path id="Trazado_84" data-name="Trazado 84" d="M40.148,4.165V0H29.738V6.7H14.571V0H4.161V4.165H0V15.483H4.161v4.165h10.41v-6.7H29.738v6.7h10.41V15.483h4.161V4.165ZM4.161,13.4H2.081V6.245H4.161Zm4.165,4.165H6.242V2.081H8.326Zm4.165,0H10.406V2.081H12.49Zm17.248-6.7H14.571V8.782H29.738Zm4.164,6.7H31.819V2.081H33.9Zm4.165,0H35.983V2.081h2.084ZM42.228,13.4H40.148V6.245h2.081Z" transform="translate(0 31.331) rotate(-45)" fill="#fff"/>
    </g>
  </g>
</svg>
